<?xml version="1.0" encoding="utf-8"?>
<!-- Generator: Adobe Illustrator 24.0.0, SVG Export Plug-In . SVG Version: 6.00 Build 0)  -->
<svg version="1.1" id="Capa_1" xmlns="http://www.w3.org/2000/svg" xmlns:xlink="http://www.w3.org/1999/xlink" x="0px" y="0px"
	 viewBox="0 0 512 512" style="enable-background:new 0 0 512 512;" xml:space="preserve">
<style type="text/css">
	.st0{fill:#1A86DF;}
</style>
<g>
	<g>
		<g>
			<path class="st0" d="M122,367L122,367C122.1,367,122.5,366.9,122,367z"/>
			<path class="st0" d="M122,367L122,367L122,367z"/>
			<path class="st0" d="M438.3,477.7l-4.5-22.4c-0.8-4.1-4.8-6.7-8.8-5.9c-4.1,0.8-6.7,4.8-5.9,8.8l4.5,22.4
				c1.7,8.5-4.8,16.4-13.4,16.4h-43.7v-34.1c0-4.1-3.4-7.5-7.5-7.5s-7.5,3.4-7.5,7.5V497h-64.4l-9.7-75.2l5-14.8
				c3.1,1.7,9.1,9.5,19.1,6.4c4.6-1.4,8.4-4.9,10-9.5c8.9-24.8,9.7-27.2,14.3-40.2c15.8,4.7,53.6,15.8,54.1,16v-0.1
				c1,0.4,2.2,0.7,5.6,1.7c7.5,2.8,20.3,10.2,23.8,27.8l2.9,14.8c0.8,4.1,4.8,6.7,8.8,5.9c4.1-0.8,6.7-4.8,5.9-8.8l-2.9-14.8
				c-5-24.9-23.1-35.1-33.5-39c-0.5-0.2,3.9,1.1-66.2-19.5l-20.6-13.9v-13.1c25.8-13.4,45.1-37.5,52.3-66.3c2.8,1.4,6,2.2,9.3,2.2
				c10.2,0,18.7-7.2,20.7-16.8c13.5-7.3,21.9-21.4,21.9-36.9c0-9.1-2.9-17.6-7.9-24.6V144c0-38.5-15.1-74.7-42.5-101.9
				C330.4,14.9,294.4,0,256.2,0c-31.7,0-62.1,10.3-87.7,30.2c-3.3,2.5-3.8,7.3-1.3,10.5c2.5,3.3,7.3,3.8,10.5,1.3
				c22.6-17.6,49.7-27,78.4-27c34.2,0,66.4,13.3,90.8,37.5c24.5,24.4,38,56.8,38,91.3v18.7c-2.1-5.6-6.6-10-12.2-12.2v-6.5
				c0-64.3-52.3-116.6-116.6-116.6S139.6,79.5,139.6,143.8v6.5c-5.6,2.1-10,6.6-12.2,12.2v-17.2c0-29.1,9.4-56.7,27.1-79.8
				c2.5-3.3,1.9-8-1.4-10.5c-3.3-2.5-8-1.9-10.5,1.4c-19.7,25.7-30.2,56.5-30.2,88.9v32.8c-5,7-7.9,15.5-7.9,24.6
				c0,15.6,8.5,29.6,21.9,36.9c1.5,7.3,6.9,13.3,13.8,15.6c2,9.3,6.6,18,13.6,25.2c6.6,6.9,15.1,12.2,24.6,15.5
				c2.3,2.7,4.8,5.3,7.3,7.8c6.9,6.6,14.5,12.1,22.6,16.4v13.6L188,347.6c-59.7,17.6-65.8,19.4-66,19.5l0,0
				c-0.2,0.1-0.3,0.1-0.5,0.2l0,0c-10.4,3.9-28.5,14.1-33.5,39l-14.4,72.3c-3.4,17.4,9.8,33.5,27.5,33.5h72.4c4.1,0,7.5-3.4,7.5-7.5
				s-3.4-7.5-7.5-7.5h-12.7V463c0-4.1-3.4-7.5-7.5-7.5s-7.5,3.4-7.5,7.5v34h-44.7c-8.2,0-14.4-7.5-12.8-15.6l14.4-72.3
				c3.5-17.6,16.3-24.9,23.8-27.8c9.6-2.8,43.8-12.9,59.9-17.7c3.4,9.5,11,30.9,14.4,40.2c1.6,4.5,5.2,8.1,10,9.5
				c8.8,2.7,13.5-2.5,19.2-6.5l5.1,14.9l-9.7,75.1h-16.7c-4.1,0-7.5,3.4-7.5,7.5s3.4,7.5,7.5,7.5c9.6,0,190.9,0,201.5,0
				C428.3,512,441.8,495.4,438.3,477.7z M386.4,185.1c0.2,0.2,0.3,0.4,0.5,0.6c3.8,4.7,6,10.6,6,17c0,6.6-2.4,12.8-6.5,17.6V185.1z
				 M125.5,185.7c0.2-0.2,0.3-0.4,0.5-0.6v35.2c-4.1-4.8-6.5-11-6.5-17.6C119.5,196.4,121.7,190.4,125.5,185.7z M153.1,235.3
				c0,3.4-2.7,6.1-6.1,6.1c-3.4,0-6.1-2.7-6.1-6.1v-0.6v-64v-0.6c0-3.4,2.7-6.1,6.1-6.1c3.4,0,6.1,2.7,6.1,6.1V235.3z M312.1,357.5
				c-1.3,3.7-13.2,36.9-14.8,41.4c-0.1,0.2-0.4,0.3-0.6,0.2L283,388.9l17.2-39.4L312.1,357.5z M359.2,170.1c0-3.4,2.7-6.1,6.1-6.1
				s6.1,2.7,6.1,6.1v0.6v64v0.6c0,3.4-2.7,6.1-6.1,6.1s-6.1-2.7-6.1-6.1V170.1z M155.5,254.6c0.4-0.2,0.8-0.4,1.1-0.5
				c0.8,3.3,1.9,6.5,3,9.7C157.9,260.9,156.5,257.8,155.5,254.6z M167.2,154.3c-1.7,0.2-3.3,0.6-4.9,1.2c-2.1-2.2-4.8-4-7.7-5.1
				v-6.5c0-56,45.6-101.6,101.6-101.6s101.6,45.6,101.6,101.6v6.5c-1.9,0.7-3.6,1.7-5.2,2.9c-0.1-0.1-0.1-0.1-0.1-0.1
				c-0.1-0.1-0.3-0.2-0.4-0.3l-32.4-25.2c-7.4-5.8-16.4-7.2-24.8-4c-22.1,8.6-78.8,28.7-127,30.6
				C167.7,154.2,167.4,154.2,167.2,154.3z M204.2,299.8h22c3,7.9,10.7,13.6,19.7,13.6H265c11.6,0,21.1-9.5,21.1-21.1
				s-9.5-21.1-21.1-21.1h-19.1c-9,0-16.7,5.7-19.7,13.6h-24.5c-5.1,0-10-0.6-14.6-1.9c-12.1-15.6-18.8-35.1-18.8-55v-58.7
				c0.2,0,0.3-0.1,0.4-0.1c0.2,0,0.3,0,0.5,0c50.3-2.2,108.4-22.8,131.1-31.6c3.4-1.3,7-0.7,10.2,1.8l32,24.9
				c0.3,0.3,1.5,2.1,1.5,4.9v60.1c0,49-39.8,88.3-88.6,87.9C236.5,317,218.7,310.7,204.2,299.8z M239.8,292.3c0-3.4,2.7-6.1,6.1-6.1
				H265c3.4,0,6.1,2.7,6.1,6.1s-2.7,6.1-6.1,6.1h-19.1C242.6,298.4,239.8,295.7,239.8,292.3z M215.5,399c-0.2,0.2-0.5,0.1-0.6-0.2
				c-3.6-10-11.4-32.1-14.8-41.4l11.9-8.1c29,65.5-0.8-2,17.2,39.4L215.5,399z M223.3,335.8L223.3,335.8L223.3,335.8z M223.5,336.2
				c0,0-0.1-0.1-0.2-0.4v-9c10.5,3.6,21.5,5.5,32.9,5.5c10.8,0,21.9-1.7,32.6-5.2v9.2L268.9,384h-25.3
				C228,346.8,224.2,338,223.5,336.2z M269.3,398.8l-5,14.7H248l-5-14.7H269.3z M240.4,497l8.8-68.5H263l8.8,68.5H240.4z"/>
		</g>
	</g>
</g>
</svg>
