<?xml version="1.0" encoding="utf-8"?>
<!-- Generator: Adobe Illustrator 24.0.0, SVG Export Plug-In . SVG Version: 6.00 Build 0)  -->
<svg version="1.1" id="Capa_1" xmlns="http://www.w3.org/2000/svg" xmlns:xlink="http://www.w3.org/1999/xlink" x="0px" y="0px"
	 viewBox="0 0 512 512" style="enable-background:new 0 0 512 512;" xml:space="preserve">
<style type="text/css">
	.st0{fill:#1A86DF;}
</style>
<g>
	<g>
		<path class="st0" d="M414.5,199h-32.2L392,87.5c0-0.2,0-0.4,0-0.6c0,0,0,0,0-0.1l0,0c0-3-1.8-5.7-4.5-6.9c0,0,0,0-0.1,0
			c-0.2-0.1-0.3-0.1-0.5-0.2c-0.1,0-0.1,0-0.2-0.1c-0.1,0-0.3-0.1-0.4-0.1s-0.2-0.1-0.3-0.1c-0.1,0-0.3,0-0.4-0.1
			c-0.1,0-0.2,0-0.4-0.1c0,0,0,0-0.1,0s-0.3,0-0.4,0s-0.2,0-0.3,0h-0.1l0,0H231c-4.1,0-7.5,3.4-7.5,7.5s3.4,7.5,7.5,7.5h145.3
			l-14.9,171.4l0,0l-3.8,43.2H97l4.4-45H151c4.1,0,7.5-3.4,7.5-7.5s-3.4-7.5-7.5-7.5h-48.2l9.2-95h79c4.1,0,7.5-3.4,7.5-7.5
			s-3.4-7.5-7.5-7.5h-77.5l4.3-44.7H201c4.1,0,7.5-3.4,7.5-7.5s-3.4-7.5-7.5-7.5h-90l0,0c-3.5,0-6.6,2.5-7.3,5.9c0,0,0,0,0,0.1
			c0,0.2-0.1,0.4-0.1,0.6c0,0.1,0,0.1,0,0.2l0,0l-5.1,52.9h-91c-4.1,0-7.5,3.4-7.5,7.5s3.4,7.5,7.5,7.5H97l-9.2,95H61
			c-4.1,0-7.5,3.4-7.5,7.5s3.4,7.5,7.5,7.5h25.3l-5,51.7l0,0l-7.7,80l0,0l0,0c0,0.1,0,0.2,0,0.3c0,0.1,0,0.3,0,0.4l0,0
			c0,0.2,0,0.4,0,0.6c0,0.1,0,0.1,0,0.2c0,0.2,0.1,0.4,0.1,0.6c0,0.1,0,0.1,0,0.2s0.1,0.3,0.1,0.4s0,0.2,0.1,0.3v0.1
			c0.4,1.1,1,2.1,1.8,2.9l0,0c0.1,0.1,0.2,0.2,0.3,0.2c0.5,0.5,1.1,0.9,1.7,1.2c0.1,0.1,0.3,0.1,0.4,0.2h0.1
			c0.2,0.1,0.4,0.1,0.6,0.2c0,0,0,0,0.1,0c0.2,0.1,0.4,0.1,0.7,0.2h0.1c0.2,0,0.4,0.1,0.7,0.1l0,0c0.2,0,0.5,0,0.7,0l0,0h33.4
			c3.7,28,27.7,49.6,56.6,49.6s52.9-21.6,56.6-49.6H348c3.7,28,27.7,49.6,56.6,49.6s52.9-21.6,56.6-49.6h33.4l0,0c0.3,0,0.5,0,0.7,0
			h0.1c0.2,0,0.4,0,0.6-0.1c0.1,0,0.2,0,0.2-0.1c0.1,0,0.3-0.1,0.4-0.1s0.2-0.1,0.3-0.1c0.1,0,0.2-0.1,0.4-0.1
			c0.1,0,0.2-0.1,0.3-0.1c0.1-0.1,0.2-0.1,0.3-0.2c0.1-0.1,0.2-0.1,0.3-0.2c0.1-0.1,0.2-0.1,0.3-0.2c0.1-0.1,0.2-0.1,0.3-0.2
			c0.1-0.1,0.2-0.1,0.3-0.2c0.1-0.1,0.2-0.1,0.2-0.2c0.1-0.1,0.2-0.2,0.3-0.3c0.1-0.1,0.1-0.1,0.2-0.2s0.2-0.2,0.3-0.3
			c0.1-0.1,0.1-0.1,0.2-0.2s0.2-0.3,0.3-0.4l0.1-0.1c0.1-0.2,0.2-0.4,0.3-0.6l0,0c0.1-0.2,0.2-0.4,0.3-0.6c0-0.1,0-0.1,0.1-0.2
			c0.1-0.2,0.1-0.3,0.2-0.5c0-0.1,0.1-0.2,0.1-0.3c0-0.1,0.1-0.2,0.1-0.4c0-0.1,0-0.2,0.1-0.3c0-0.1,0-0.2,0.1-0.3
			c0.3-2.5,6.2-49.7,8.8-80.1v-0.1c0.8-8.8,1.2-16.2,1.2-20.7C512,242.8,468.3,199,414.5,199z M381,214.1h30.7l-3.9,45H377
			L381,214.1z M171,438.7c-23.2,0-42.1-18.9-42.1-42.1s18.9-42.1,42.1-42.1s42.1,18.9,42.1,42.1S194.2,438.7,171,438.7z
			 M404.5,438.7c-23.2,0-42.1-18.9-42.1-42.1s18.9-42.1,42.1-42.1s42.1,18.9,42.1,42.1S427.7,438.7,404.5,438.7z M487.9,389h-26.8
			c-3.7-28-27.7-49.6-56.6-49.6s-52.9,21.7-56.6,49.6H227.6c-3.7-28-27.7-49.6-56.6-49.6s-52.9,21.7-56.6,49.6H89.3l6.3-65h268.9
			l0,0l0,0c0.3,0,0.5,0,0.7,0h0.1c0.2,0,0.4-0.1,0.6-0.1c0.1,0,0.2,0,0.2-0.1c0.1,0,0.3-0.1,0.4-0.1s0.2-0.1,0.3-0.1
			c0.1,0,0.3-0.1,0.4-0.1s0.2-0.1,0.3-0.1c0.1-0.1,0.2-0.1,0.3-0.2c0.1-0.1,0.2-0.1,0.3-0.2c0.1-0.1,0.2-0.1,0.3-0.2
			c0.1-0.1,0.2-0.1,0.3-0.2c0.1-0.1,0.2-0.1,0.3-0.2c0.1-0.1,0.2-0.1,0.3-0.2c0.1-0.1,0.2-0.2,0.3-0.3c0.1-0.1,0.2-0.1,0.2-0.2
			c0.1-0.1,0.2-0.2,0.3-0.3c0.1-0.1,0.1-0.2,0.2-0.2c0.1-0.1,0.2-0.2,0.2-0.3c0.1-0.1,0.1-0.2,0.2-0.2c0.1-0.1,0.1-0.2,0.2-0.3
			c0.1-0.1,0.1-0.2,0.1-0.3c0.1-0.1,0.1-0.2,0.2-0.4c0-0.1,0.1-0.2,0.1-0.3c0-0.1,0.1-0.2,0.1-0.4c0-0.1,0.1-0.2,0.1-0.3
			c0-0.1,0.1-0.2,0.1-0.4c0-0.1,0.1-0.2,0.1-0.4c0-0.1,0-0.2,0.1-0.4c0-0.1,0-0.2,0.1-0.4c0,0,0,0,0-0.1l3.8-43.1h38.8
			c23,0,33.3,11.9,44.3,24.5c9.1,10.4,19.2,22,36.3,24.8C493,346.5,489.4,376.1,487.9,389z M496.4,308.4
			c-11.1-2.3-18-10.1-26.3-19.7c-10.4-11.9-23.1-26.5-47.4-29.2l3.9-44.5c39.8,5.9,70.4,40.2,70.4,81.6
			C497,299.4,496.8,303.4,496.4,308.4z"/>
	</g>
</g>
<g>
	<g>
		<path class="st0" d="M171,358.5c-15.2,0-27.5,12.3-27.5,27.5s12.3,27.5,27.5,27.5s27.5-12.3,27.5-27.5
			C198.5,370.9,186.2,358.5,171,358.5z M171,398.5c-6.9,0-12.5-5.6-12.5-12.5s5.6-12.5,12.5-12.5s12.5,5.6,12.5,12.5
			S177.9,398.5,171,398.5z"/>
	</g>
</g>
<g>
	<g>
		<path class="st0" d="M404.5,358.5c-15.2,0-27.5,12.3-27.5,27.5s12.3,27.5,27.5,27.5S432,401.2,432,386
			C432,370.9,419.7,358.5,404.5,358.5z M404.5,398.5c-6.9,0-12.5-5.6-12.5-12.5s5.6-12.5,12.5-12.5S417,379.1,417,386
			S411.4,398.5,404.5,398.5z"/>
	</g>
</g>
<g>
	<g>
		<path class="st0" d="M71,188.5H34.3c-4.1,0-7.5,3.4-7.5,7.5s3.4,7.5,7.5,7.5H71c4.1,0,7.5-3.4,7.5-7.5S75.1,188.5,71,188.5z"/>
	</g>
</g>
</svg>
