<?xml version="1.0" encoding="utf-8"?>
<!-- Generator: Adobe Illustrator 24.0.0, SVG Export Plug-In . SVG Version: 6.00 Build 0)  -->
<svg version="1.1" id="Layer_1" xmlns="http://www.w3.org/2000/svg" xmlns:xlink="http://www.w3.org/1999/xlink" x="0px" y="0px"
	 viewBox="0 0 429 429" style="enable-background:new 0 0 429 429;" xml:space="preserve">
<style type="text/css">
	.st0{fill:#1A86DF;}
</style>
<path class="st0" d="M127.1,186.1v0.3c-1.1,18.5,9.3,35.9,26.4,44.2l0.2,0.1c6,2.9,11,7.6,14.1,13.6l0.1,0.1
	c8.6,16.4,26.5,26.4,45.5,25.4h0.3c6.9-0.4,13.7,1.4,19.6,5.1c16.1,10.1,36.5,10.1,52.6,0c5.8-3.7,12.7-5.5,19.6-5.1h0.3
	c19,1,36.8-9,45.5-25.4v-0.1c3.1-5.9,8.1-10.7,14.1-13.6l0.1-0.1c17.1-8.3,27.5-25.7,26.4-44.2v-0.3c-0.4-6.5,1.5-13,5.2-18.4
	c10.6-15.5,10.6-36,0-51.5c-3.7-5.4-5.5-11.8-5.2-18.4v-0.3c1.1-18.5-9.3-35.9-26.4-44.2l-0.2-0.1c-6-2.9-11-7.6-14.1-13.5l-0.1-0.2
	c-8.6-16.4-26.5-26.4-45.5-25.4h-0.3c-6.9,0.4-13.7-1.4-19.6-5.1l0,0c-16.1-10.1-36.5-10.1-52.6,0c-5.8,3.7-12.7,5.5-19.6,5.1h-0.3
	c-19-1-36.8,9-45.5,25.4l-0.1,0.1c-3.1,5.9-8.1,10.7-14.1,13.6l-0.2,0.1c-17.1,8.3-27.5,25.7-26.4,44.2v0.3c0.4,6.5-1.5,13-5.2,18.4
	c-10.6,15.5-10.6,36,0,51.5C125.6,173.1,127.4,179.6,127.1,186.1z M135.1,125.3c5.7-8.3,8.5-18.3,8-28.3v-0.3
	c-0.6-12.3,6.3-23.7,17.4-28.9l0.1-0.1c9.1-4.4,16.6-11.6,21.3-20.5l0.1-0.1c5.7-10.9,17.7-17.5,30.5-16.8h0.3
	c10.2,0.6,20.3-2.1,28.9-7.5c10.9-6.8,24.7-6.8,35.6,0c8.6,5.5,18.7,8.1,28.9,7.5h0.3c12.8-0.7,24.7,5.9,30.5,16.8l0.1,0.2
	c4.7,8.9,12.2,16.1,21.3,20.5l0.1,0.1c11.3,5.5,18.2,16.8,17.5,28.9v0.3c-0.5,10.1,2.3,20,8,28.3c6.9,10.1,6.9,23.3,0,33.4
	c-5.7,8.3-8.5,18.3-8,28.3v0.3c0.7,12.1-6.2,23.4-17.5,28.9l-0.1,0.1c-9.1,4.4-16.6,11.6-21.3,20.5L337,237
	c-5.7,10.9-17.7,17.5-30.5,16.8h-0.3c-10.2-0.6-20.3,2.1-29,7.5c-10.9,6.8-24.7,6.8-35.6,0c-7.8-5-16.9-7.6-26.2-7.6
	c-0.9,0-1.8,0-2.7,0.1h-0.3c-12.6,0.8-24.5-5.8-30.5-16.9l-0.1-0.2c-4.7-8.9-12.2-16.1-21.3-20.5l-0.1-0.1
	c-11.3-5.5-18.2-16.8-17.5-28.9v-0.3c0.5-10.1-2.3-20-8-28.3C128.2,148.6,128.2,135.4,135.1,125.3L135.1,125.3z"/>
<path class="st0" d="M207.9,224.6c3.7,2.3,8.7,1.2,11-2.5l94.6-151.6c1.5-2.4,1.7-5.5,0.3-8c-1.3-2.5-3.9-4.2-6.8-4.3
	s-5.6,1.4-7.1,3.8l-94.6,151.6C203.1,217.3,204.2,222.2,207.9,224.6z"/>
<path class="st0" d="M216.4,142.4c19.4,0,35.3-18,35.3-40.2S235.9,62,216.4,62s-35.3,18-35.3,40.2S197,142.4,216.4,142.4z
	 M216.4,77.9c10.6,0,19.3,10.9,19.3,24.2s-8.7,24.3-19.3,24.3s-19.3-10.9-19.3-24.3S205.8,77.9,216.4,77.9z"/>
<path class="st0" d="M267.3,181.9c0,22.2,15.8,40.2,35.3,40.2s35.3-18,35.3-40.2s-15.8-40.2-35.3-40.2
	C283.1,141.6,267.3,159.7,267.3,181.9z M321.8,181.9c0,13.4-8.7,24.2-19.3,24.2c-10.6,0-19.3-10.9-19.3-24.2s8.7-24.2,19.3-24.2
	C313.2,157.6,321.8,168.5,321.8,181.9z"/>
<path class="st0" d="M428,314.5c-10.6-18.8-34-25.9-53.3-16.2l-62.6,29.6c-8.6-16.1-25.2-26.3-43.4-26.8l-57.8-1.6
	c-9.1-0.3-18.1-2.6-26.3-6.8l-5.9-3c-30.1-15.7-66-15.6-96,0.1l0.4-13.3c0.1-4.4-3.4-8.1-7.8-8.2L12,266.4c-4.4-0.1-8.1,3.4-8.2,7.8
	L0,413.2c-0.1,4.4,3.4,8.1,7.8,8.2l63.3,1.7h0.2c4.3,0,7.9-3.4,8-7.8l0.2-6.6l16.5-8.8c6.5-3.5,14-4.3,21.1-2.3l98.3,27.6
	c0.2,0.1,0.3,0.1,0.5,0.1c7.1,1.5,14.3,2.2,21.6,2.2c15.4,0,30.6-3.3,44.5-9.7c0.3-0.2,0.7-0.3,1-0.5l142.5-92.2
	C428.9,322.8,430,318.2,428,314.5z M16.2,405.6l3.4-123l47.4,1.3l-3.4,123L16.2,405.6z M274.7,403.5c-17.4,7.8-36.7,10-55.4,6.2
	l-98-27.5c-11-3.1-22.8-1.8-32.9,3.6l-8.4,4.5l2.3-81.8c26.6-17.7,60.8-19.5,89.2-4.8l5.9,3c10.3,5.3,21.6,8.2,33.2,8.6l57.8,1.6
	c16.2,0.5,30,12,33.3,27.9l-86-2.4c-4.4-0.1-8.1,3.4-8.2,7.8c-0.1,4.4,3.4,8.1,7.8,8.2l94.9,2.6h0.2c4.3,0,7.9-3.4,8-7.8
	c0.1-3.5-0.2-6.9-0.8-10.4l64.2-30.3l0.2-0.1c9.1-4.6,20.1-3.1,27.6,3.9L274.7,403.5z"/>
</svg>
