<svg xmlns="http://www.w3.org/2000/svg" viewBox="0 0 32.17 26.63"><defs><style>.cls-1{fill:#fff;}</style></defs><g id="Layer_2" data-name="Layer 2"><g id="Layer_1-2" data-name="Layer 1"><path class="cls-1" d="M32.05,7.26,29.17.63a1.06,1.06,0,0,0-1-.63H4A1.05,1.05,0,0,0,3,.63L.11,7.26A1.41,1.41,0,0,0,.33,8.72l15,17.54a1.06,1.06,0,0,0,.8.37h0a1.06,1.06,0,0,0,.8-.37l5-5.89a.49.49,0,0,0,0-.68.48.48,0,0,0-.67.06l-4,4.64,6.24-16h7.45l-8.34,9.77a.48.48,0,0,0,.06.67.47.47,0,0,0,.67-.05l8.54-10a1.41,1.41,0,0,0,.21-1.46Zm-1,.13h-7l4.38-6ZM10.81,13.6l4.24,10.92L1.26,8.34h7.5l1.31,3.37a.48.48,0,0,0,.44.3l.18,0a.49.49,0,0,0,.27-.62l-1.18-3H22.44L16.11,24.61,11.69,13.26a.47.47,0,1,0-.88.34ZM17.91,1,19,2.57a.5.5,0,0,0,.4.22A.49.49,0,0,0,19.8,2L19.06,1h8.51L23.15,7,21,3.76a.48.48,0,0,0-.79.53l2.08,3.1H10L14.31,1ZM9.07,7,4.65,1h8.51ZM3.74,1.33,8.15,7.39h-7Z"/><path class="cls-1" d="M7.23,21.76a.78.78,0,0,0-.77-.05L4,22.86a.82.82,0,0,0-.42,1,3.21,3.21,0,0,0,3.18,2h0a.82.82,0,0,0,.56-.22.79.79,0,0,0,.25-.58V22.44a.79.79,0,0,0-.38-.68Zm-.58,3.17c-1.51-.13-2-.88-2.12-1.27l2.12-1Z"/><path class="cls-1" d="M6.24,19.14A.8.8,0,0,0,6,18.4L4.11,16.47a.81.81,0,0,0-1.09,0A3.21,3.21,0,0,0,2.2,20.1a.8.8,0,0,0,.41.49.9.9,0,0,0,.36.08.65.65,0,0,0,.27-.05l2.49-.9A.79.79,0,0,0,6.24,19.14Zm-3.17.53a2.19,2.19,0,0,1,.46-2.42l1.66,1.66Z"/><path class="cls-1" d="M28.22,22.86l-2.46-1.15a.78.78,0,0,0-.77.05.79.79,0,0,0-.38.68v2.65a.79.79,0,0,0,.25.58.82.82,0,0,0,.56.22h0a3.21,3.21,0,0,0,3.18-2,.82.82,0,0,0-.42-1Zm-2.65,2.07V22.67l2.12,1C27.53,24.05,27.08,24.8,25.57,24.93Z"/><path class="cls-1" d="M29.2,16.43a.81.81,0,0,0-1.09,0L26.19,18.4a.8.8,0,0,0-.21.74.79.79,0,0,0,.51.58l2.49.9a.65.65,0,0,0,.27.05.9.9,0,0,0,.36-.08A.8.8,0,0,0,30,20.1,3.21,3.21,0,0,0,29.2,16.43Zm-.05,3.24L27,18.91l1.66-1.66a2.19,2.19,0,0,1,.46,2.42Z"/></g></g></svg>