<svg xmlns="http://www.w3.org/2000/svg" viewBox="0 0 25.31 35.2"><defs><style>.cls-1{fill:#fff;}</style></defs><g id="Layer_2" data-name="Layer 2"><g id="Layer_1-2" data-name="Layer 1"><path class="cls-1" d="M12.66,21.37a9.15,9.15,0,1,0-9.15-9.15A9.15,9.15,0,0,0,12.66,21.37Zm0-17.26a8.12,8.12,0,1,1-8.12,8.12,8.12,8.12,0,0,1,8.12-8.12Z"/><path class="cls-1" d="M9.57,13.61,8.43,17a.53.53,0,0,0,.33.66.55.55,0,0,0,.45-.06l3.45-2.3,3.44,2.3a.53.53,0,0,0,.72-.15.51.51,0,0,0,.06-.45l-1.14-3.43L18,11.35a.51.51,0,0,0,0-.74.53.53,0,0,0-.36-.15H14.28L13.15,7.08a.51.51,0,0,0-1,0L11,10.46H7.68a.52.52,0,0,0-.37.89Zm1.84-2.11a.52.52,0,0,0,.49-.36l.76-2.26.75,2.26a.51.51,0,0,0,.49.36h2.49l-1.61,1.6a.5.5,0,0,0-.12.53l.76,2.31-2.48-1.66a.53.53,0,0,0-.57,0L9.89,15.93l.77-2.3a.53.53,0,0,0-.13-.53l-1.6-1.6Z"/><path class="cls-1" d="M25.26,31.08l-4.8-9.76a1.64,1.64,0,0,0,1.32-1.61v-1a.6.6,0,0,1,.38-.56l.9-.38A1.64,1.64,0,0,0,24,15.64h0l-.37-.9a.62.62,0,0,1,.13-.66l.69-.69a1.65,1.65,0,0,0,0-2.33h0l-.69-.69a.6.6,0,0,1-.13-.66L24,8.8a1.64,1.64,0,0,0-.89-2.15h0l-.9-.37a.61.61,0,0,1-.38-.56v-1A1.63,1.63,0,0,0,20.14,3.1h-1a.6.6,0,0,1-.56-.38l-.38-.9A1.64,1.64,0,0,0,16.07.93h0l-.9.37a.6.6,0,0,1-.66-.13L13.82.48a1.65,1.65,0,0,0-2.33,0l-.69.69a.58.58,0,0,1-.66.13L9.23.93a1.64,1.64,0,0,0-2.15.89l-.37.9a.6.6,0,0,1-.56.38h-1A1.64,1.64,0,0,0,3.53,4.74v1a.6.6,0,0,1-.38.56l-.9.38a1.64,1.64,0,0,0-.89,2.15l.37.9a.58.58,0,0,1-.13.66l-.69.69a1.65,1.65,0,0,0,0,2.33l.7.69a.62.62,0,0,1,.13.66l-.38.91a1.66,1.66,0,0,0,.9,2.15h0l.89.37a.61.61,0,0,1,.38.56v1a1.65,1.65,0,0,0,1.33,1.62L.05,31.08a.52.52,0,0,0,.24.69.55.55,0,0,0,.4,0L5.3,30.23l1.58,4.62a.51.51,0,0,0,.45.35h0a.54.54,0,0,0,.46-.29l4.83-9.8,4.82,9.8a.52.52,0,0,0,.47.29h0a.53.53,0,0,0,.46-.35L20,30.23l4.62,1.57a.53.53,0,0,0,.66-.32.55.55,0,0,0,0-.4ZM4.57,19.71v-1a1.65,1.65,0,0,0-1-1.52l-.9-.37a.61.61,0,0,1-.33-.8h0l.37-.9a1.63,1.63,0,0,0-.35-1.79l-.69-.7a.6.6,0,0,1,0-.86l.68-.69a1.61,1.61,0,0,0,.36-1.79l-.37-.9a.6.6,0,0,1,.33-.79h0l.9-.38a1.63,1.63,0,0,0,1-1.52v-1a.6.6,0,0,1,.61-.6h1a1.65,1.65,0,0,0,1.52-1L8,2.22a.61.61,0,0,1,.8-.33h0l.9.37a1.63,1.63,0,0,0,1.79-.35l.7-.7a.62.62,0,0,1,.86,0l.69.69a1.63,1.63,0,0,0,1.79.36l.9-.37a.59.59,0,0,1,.79.33h0l.38.9a1.63,1.63,0,0,0,1.52,1h1a.61.61,0,0,1,.61.6v1a1.66,1.66,0,0,0,1,1.52l.9.37A.6.6,0,0,1,23,8.4h0l-.37.91A1.62,1.62,0,0,0,23,11.1l.69.69a.62.62,0,0,1,0,.87l-.69.68a1.67,1.67,0,0,0-.36,1.8L23,16a.6.6,0,0,1-.33.79h0l-.91.38a1.64,1.64,0,0,0-1,1.52v1a.61.61,0,0,1-.61.61h-1a1.65,1.65,0,0,0-1.52,1l-.37.9a.6.6,0,0,1-.79.33h0l-.91-.37a1.63,1.63,0,0,0-1.79.35l-.69.69a.6.6,0,0,1-.86,0l-.69-.68a1.65,1.65,0,0,0-1.8-.36l-.89.37a.61.61,0,0,1-.8-.32h0l-.38-.9a1.63,1.63,0,0,0-1.52-1h-1A.6.6,0,0,1,4.57,19.71ZM7.45,33.33,6.12,29.4a.52.52,0,0,0-.66-.32h0L1.54,30.42,6,21.35h.15a.62.62,0,0,1,.57.38l.37.9a1.64,1.64,0,0,0,2.15.89l.9-.37a.6.6,0,0,1,.66.13l.69.69a1.66,1.66,0,0,0,.42.29Zm12.4-4.25a.53.53,0,0,0-.66.32h0l-1.33,3.93L13.4,24.26a1.5,1.5,0,0,0,.42-.29l.69-.69a.6.6,0,0,1,.66-.14l.91.38a1.64,1.64,0,0,0,2.15-.89l.37-.9a.61.61,0,0,1,.56-.38h.15l4.47,9.07Z"/></g></g></svg>