<?xml version="1.0" encoding="utf-8"?>
<!-- Generator: Adobe Illustrator 22.0.0, SVG Export Plug-In . SVG Version: 6.00 Build 0)  -->
<svg version="1.1" id="Layer_1" xmlns="http://www.w3.org/2000/svg" xmlns:xlink="http://www.w3.org/1999/xlink" x="0px" y="0px"
	 viewBox="0 0 504 504" style="enable-background:new 0 0 504 504;" xml:space="preserve">
<style type="text/css">
	.st0{fill:#29ABE2;}
</style>
<path class="st0" d="M433.8,317L418,285.4c3.4-6.8,6.2-13.7,8.6-20.5l33.4-11.2v-91.5l-33.4-11.2c-2.4-6.8-5.2-13.7-8.6-20.5
	l15.8-31.6l-64.7-64.7L337.4,50c-6.8-3.4-13.7-6.2-20.5-8.6L305.8,8h-91.5l-11.2,33.4c-6.8,2.4-13.7,5.2-20.5,8.6l-31.6-15.8
	L86.2,98.9l15.8,31.6c-3.4,6.8-6.2,13.7-8.6,20.5L60,162.2v91.5l33.4,11.1c2.3,6.8,5.2,13.6,8.5,20.3L91.7,304H44v160h56v-24h60.7
	l24,24H228v8c0,17.6,14.4,32,32,32s32-14.4,32-32v-8h56c13.2,0,24-10.8,24-24c0-6.2-2.4-11.7-6.2-16c3.8-4.3,6.2-9.8,6.2-16
	s-2.4-11.7-6.2-16c3.1-3.4,5.1-7.6,5.9-12.3L433.8,317z M118.1,281.7c-4.4-8.5-8-17-10.7-25.5l-1.2-3.9L76,242.2v-68.5l30.2-10.1
	l1.2-3.9c2.7-8.5,6.3-17.1,10.7-25.5l1.9-3.6l-14.3-28.6l48.4-48.4L182.7,68l3.6-1.9c8.5-4.4,17-8,25.5-10.7l3.9-1.2L225.8,24h68.5
	l10.1,30.2l3.9,1.2c8.5,2.7,17.1,6.3,25.5,10.7l3.6,1.9l28.6-14.3l48.4,48.4L400,130.7l1.9,3.6c4.4,8.5,8,17,10.7,25.5l1.2,3.9
	l30.2,10.1v68.5l-30.2,10.1l-1.2,3.9c-2.7,8.5-6.3,17.1-10.7,25.5l-1.9,3.6l14.3,28.6l-47.3,47.6c-0.4-0.5-0.8-1.1-1.3-1.6
	c3.8-4.3,6.2-9.8,6.2-16c0-12.5-9.6-22.6-21.8-23.8C384.2,293,404,252.2,404,208c0-79.4-64.6-144-144-144s-144,64.6-144,144
	c0,43.7,19.9,84.8,53.6,112h-68.4l18.9-34.5L118.1,281.7z M356,408c0,4.4-3.6,8-8,8h-64c-4.4,0-8-3.6-8-8s3.6-8,8-8h64
	C352.4,400,356,403.6,356,408z M240.7,208h38.6l12.7-12.7V160c8.8,0,16,7.2,16,16v36.7L280.7,240h-41.4L212,212.7V176
	c0-8.8,7.2-16,16-16v35.3L240.7,208z M244,256h32v32h-32V256z M292,251.3l32-32V176c0-17.6-14.4-32-32-32h-16v44.7l-3.3,3.3h-25.4
	l-3.3-3.3V144h-16c-17.6,0-32,14.4-32,32v43.3l32,32V288h-19.3l-0.5,0.5C180.9,270.9,164,240.7,164,208c0-52.9,43.1-96,96-96
	s96,43.1,96,96c0,32.4-16.2,62.1-43.3,80H292V251.3z M372,208c0-61.8-50.2-112-112-112s-112,50.2-112,112c0,37,18.4,71.4,48.5,92.2
	L185,311.7c-33.2-24.1-53-62.6-53-103.7c0-70.6,57.4-128,128-128s128,57.4,128,128c0,39.5-17.9,76-48.4,100.2
	c-0.9-5.7-3.8-10.6-8-14.2C357.1,272.8,372,241.6,372,208z M348,336c4.4,0,8,3.6,8,8s-3.6,8-8,8h-64c-4.4,0-8-3.6-8-8s3.6-8,8-8H348
	z M284,384c-4.4,0-8-3.6-8-8s3.6-8,8-8h64c4.4,0,8,3.6,8,8s-3.6,8-8,8H284z M84,448H60V320h24V448z M191.3,448l-24-24H100v-88h83.3
	l32-32H316c4.4,0,8,3.6,8,8s-3.6,8-8,8h-83.3l-34.3,34.3l11.3,11.3l18.3-18.3V448H191.3z M260,488c-8.8,0-16-7.2-16-16V336h17.5
	c-0.9,2.5-1.5,5.2-1.5,8c0,6.2,2.4,11.7,6.2,16c-3.8,4.3-6.2,9.8-6.2,16s2.4,11.7,6.2,16c-3.8,4.3-6.2,9.8-6.2,16s2.4,11.7,6.2,16
	c-3.8,4.3-6.2,9.8-6.2,16c0,10.4,6.7,19.2,16,22.5v9.5C276,480.8,268.8,488,260,488z M348,448h-64c-4.4,0-8-3.6-8-8s3.6-8,8-8h64
	c4.4,0,8,3.6,8,8S352.4,448,348,448z"/>
</svg>
