<?xml version="1.0" encoding="utf-8"?>
<!-- Generator: Adobe Illustrator 22.0.0, SVG Export Plug-In . SVG Version: 6.00 Build 0)  -->
<svg version="1.1" id="Capa_1" xmlns="http://www.w3.org/2000/svg" xmlns:xlink="http://www.w3.org/1999/xlink" x="0px" y="0px"
	 viewBox="0 0 416.2 416.2" style="enable-background:new 0 0 416.2 416.2;" xml:space="preserve">
<style type="text/css">
	.st0{fill:#29ABE2;}
</style>
<g>
	<g>
		<path class="st0" d="M368.2,0h-130c-8.4,0-15,7.2-15,15.5v20.2c0,4.2,1.6,8.2,4.6,11l35.4,33.6v62.4l-6.5,5.2
			c-4.3,3.5-5,9.8-1.5,14.1c1.9,2.4,4.8,3.7,7.8,3.7c0.1,0,0.2,0,0.2,0v28.7l-6.5,5.2c-4.3,3.5-5,9.8-1.5,14.1
			c1.9,2.4,4.8,3.7,7.8,3.7c0.1,0,0.2,0,0.2,0v28.7l-6.5,5.2c-4.3,3.5-5,9.8-1.5,14.1c1.9,2.4,4.8,3.7,7.8,3.7c0.1,0,0.2,0,0.2,0
			v28.7l-6.5,5.2c-4.3,3.5-5,9.8-1.5,14.1c1.9,2.4,4.8,3.7,7.8,3.7c0.1,0,0.2,0,0.2,0v11.8l40,83.6l40-83.6v-73.8l6.5-5.2
			c4.3-3.5,5-9.8,1.5-14.1c-1.9-2.4-4.9-3.8-8-3.7v-28.7l6.5-5.2c4.3-3.5,5-9.8,1.5-14.1c-1.9-2.4-4.9-3.8-8-3.7v-28.7l6.5-5.2
			c4.3-3.5,5-9.8,1.5-14.1c-1.9-2.4-4.9-3.8-8-3.7v-28.7l6.5-5.2c4.3-3.5,4.9-9.8,1.5-14.1c-1.9-2.4-4.9-3.8-8-3.7v-0.4l35.4-33.5
			c3-2.9,4.7-6.9,4.6-11V15.6C383.2,7.2,376.6,0,368.2,0z M323.2,328l-20,41.8l-20-41.8v-20.7l40-32.3V328z M323.2,249.3l-40,32.3
			v-26l40-32.3V249.3z M323.2,197.6l-40,32.3v-26l40-32.3V197.6z M323.2,145.8l-40,32.3v-26l40-32.3V145.8z M363.2,33.7l-40,38v22.5
			l-40,32.3V71.7l-40-38V20h120V33.7z"/>
	</g>
</g>
<g>
	<g>
		<path class="st0" d="M164.5,92.7L61.1,120.9L33,224.3l75.4,75.4l103.4-28.2l28.1-103.4L164.5,92.7z M195.5,255.3l-81.2,22.1
			l-59-59l22.1-81.1l81.1-22.1l59,59L195.5,255.3z"/>
	</g>
</g>
<g>
	<g>
		<path class="st0" d="M169.7,163.2c-17.1-17.2-44.9-17.3-62.1-0.2c-0.1,0-0.2,0.1-0.2,0.2c-17.1,17.2-17.1,44.9,0,62.1
			s44.9,17.2,62,0.1l0.1-0.1C186.7,208.2,186.8,180.4,169.7,163.2z M155.3,211.2c-9.3,9.3-24.4,9.4-33.8,0.1l-0.1-0.1
			c-9.4-9.3-9.4-24.5,0-33.8c9.4-9.5,24.6-9.5,33.9-0.1C164.6,186.7,164.6,201.8,155.3,211.2z"/>
	</g>
</g>
</svg>
