<?xml version="1.0" encoding="utf-8"?>
<!-- Generator: Adobe Illustrator 22.0.0, SVG Export Plug-In . SVG Version: 6.00 Build 0)  -->
<svg version="1.1" id="Layer_1" xmlns="http://www.w3.org/2000/svg" xmlns:xlink="http://www.w3.org/1999/xlink" x="0px" y="0px"
	 viewBox="0 0 512 512" style="enable-background:new 0 0 512 512;" xml:space="preserve">
<style type="text/css">
	.st0{fill:#29ABE2;}
</style>
<g id="jack">
	<path class="st0" d="M120,48c-13.3,0-24,10.7-24,24s10.7,24,24,24s24-10.7,24-24S133.3,48,120,48z M120,80c-4.4,0-8-3.6-8-8
		s3.6-8,8-8s8,3.6,8,8S124.4,80,120,80z"/>
	<path class="st0" d="M416,72c0-13.3-10.7-24-24-24s-24,10.7-24,24s10.7,24,24,24S416,85.3,416,72z M392,80c-4.4,0-8-3.6-8-8
		s3.6-8,8-8s8,3.6,8,8S396.4,80,392,80z"/>
	<path class="st0" d="M96,440c0,13.3,10.7,24,24,24s24-10.7,24-24s-10.7-24-24-24l0,0C106.7,416,96,426.7,96,440z M120,432
		c4.4,0,8,3.6,8,8s-3.6,8-8,8s-8-3.6-8-8S115.6,432,120,432z"/>
	<path class="st0" d="M392,464c13.3,0,24-10.7,24-24s-10.7-24-24-24s-24,10.7-24,24S378.7,464,392,464L392,464z M392,432
		c4.4,0,8,3.6,8,8s-3.6,8-8,8s-8-3.6-8-8S387.6,432,392,432z"/>
	<path class="st0" d="M72,232c-13.3,0-24,10.7-24,24c0,13.3,10.7,24,24,24s24-10.7,24-24C96,242.7,85.3,232,72,232z M72,264
		c-4.4,0-8-3.6-8-8s3.6-8,8-8s8,3.6,8,8S76.4,264,72,264z"/>
	<path class="st0" d="M408,232c-13.3,0-24,10.7-24,24c0,13.3,10.7,24,24,24s24-10.7,24-24C432,242.7,421.3,232,408,232z M408,264
		c-4.4,0-8-3.6-8-8s3.6-8,8-8s8,3.6,8,8S412.4,264,408,264z"/>
	<path class="st0" d="M472,160c-13.2,0-24,10.8-24,24v32.9c-21.5-22.1-56.9-22.6-78.9-1.1c-4.8,4.7-8.7,10.1-11.5,16.2h-53.9
		l76.8-104H408c22.1,0,40-17.9,40-40V24c0-4.4-3.6-8-8-8H72c-4.4,0-8,3.6-8,8v64c0,22.1,17.9,40,40,40h27.6l76.8,104h-85.9
		c-13.3-27.9-46.7-39.9-74.6-26.6C19.9,218.7,8,252.1,21.3,280s46.7,39.9,74.6,26.6c11.7-5.5,21.1-14.9,26.6-26.6h85.9l-76.8,104
		H104c-22.1,0-40,17.9-40,40v64c0,4.4,3.6,8,8,8h368c4.4,0,8-3.6,8-8v-64c0-22.1-17.9-40-40-40h-27.6l-76.8-104h53.9
		c13.2,27.9,46.4,39.8,74.3,26.7c6-2.8,11.5-6.8,16.2-11.5V328c0,13.3,10.7,24,24,24s24-10.7,24-24V184C496,170.8,485.2,160,472,160
		z M72,296c-22.1,0-40-17.9-40-40s17.9-40,40-40s40,17.9,40,40S94.1,296,72,296z M283.8,232h-15.7l-2.2-3l74.7-101h19.9L283.8,232z
		 M256,215.6L191.2,128h129.6L256,215.6z M104,112c-13.2,0-24-10.8-24-24V32h352v56c0,13.2-10.8,24-24,24H104z M151.4,128h19.9
		l74.7,101l-2.2,3h-15.7L151.4,128z M228.2,280h15.7l2.2,3l-74.7,101h-19.9L228.2,280z M256,296.4l64.8,87.6H191.2L256,296.4z
		 M408,400c13.2,0,24,10.8,24,24v56H80v-56c0-13.2,10.8-24,24-24H408z M360.6,384h-19.9l-74.7-101l2.2-3h15.7L360.6,384z M352.6,264
		H127.4c0.9-5.3,0.9-10.7,0-16h225.3C351.8,253.3,351.8,258.7,352.6,264L352.6,264z M408,296c-22.1,0-40-17.9-40-40s17.9-40,40-40
		s40,17.9,40,40S430.1,296,408,296z M480,328c0,4.4-3.6,8-8,8s-8-3.6-8-8V184c0-4.4,3.6-8,8-8s8,3.6,8,8V328z"/>
</g>
</svg>
