<?xml version="1.0" encoding="utf-8"?>
<!-- Generator: Adobe Illustrator 22.0.0, SVG Export Plug-In . SVG Version: 6.00 Build 0)  -->
<svg version="1.1" id="Layer_1" xmlns="http://www.w3.org/2000/svg" xmlns:xlink="http://www.w3.org/1999/xlink" x="0px" y="0px"
	 viewBox="0 0 512 512" style="enable-background:new 0 0 512 512;" xml:space="preserve">
<style type="text/css">
	.st0{fill:#EAEAEA;}
	.st1{fill:#29ABE2;}
</style>
<g>
	<path class="st0" d="M195.6,65.5h83.2v421.3h-83.2V65.5z"/>
	<g>
		<path class="st1" d="M368.7,65.5H143.3v-22l52.3-18.2h83.2L368.7,65.5z"/>
		<path class="st1" d="M278.8,161l89.9-40.3H251.4v109h50.6v-34.8h-23.3V161z"/>
		<path class="st1" d="M143.3,120.7v22l52.3,18.2v33.9h-23.3v34.8h50.6v-109H143.3z"/>
		<path class="st1" d="M229.9,261.4c0,3.9-3.1,7-7,7h-27.3v-14h27.3C226.7,254.4,229.9,257.5,229.9,261.4
			C229.9,261.4,229.9,261.4,229.9,261.4L229.9,261.4z"/>
		<path class="st1" d="M221.5,287c0,3.9-3.1,7-7,7h-18.9v-14h18.9C218.3,280,221.5,283.2,221.5,287C221.5,287,221.5,287,221.5,287z"
			/>
		<path class="st1" d="M229.9,96.3c0,3.9-3.1,7-7,7c0,0,0,0,0,0h-27.3v-14h27.3C226.7,89.3,229.9,92.4,229.9,96.3
			C229.9,96.3,229.9,96.3,229.9,96.3L229.9,96.3z"/>
		<path class="st1" d="M229.9,317.4c0,3.9-3.1,7-7,7c0,0,0,0,0,0h-27.3v-14h27.3C226.7,310.4,229.9,313.5,229.9,317.4
			C229.9,317.4,229.9,317.4,229.9,317.4L229.9,317.4z"/>
		<path class="st1" d="M221.5,343c0,3.9-3.1,7-7,7c0,0,0,0,0,0h-18.9v-14h18.9C218.3,336,221.5,339.2,221.5,343
			C221.5,343,221.5,343,221.5,343z"/>
		<path class="st1" d="M229.9,373.4c0,3.9-3.1,7-7,7c0,0,0,0,0,0h-27.3v-14h27.3C226.7,366.4,229.9,369.5,229.9,373.4L229.9,373.4z"
			/>
		<path class="st1" d="M221.5,399c0,3.9-3.1,7-7,7c0,0,0,0,0,0h-18.9v-14h18.9C218.3,392,221.5,395.2,221.5,399z"/>
		<path class="st1" d="M229.9,429.4c0,3.9-3.1,7-7,7h-27.3v-14h27.3C226.7,422.4,229.9,425.6,229.9,429.4
			C229.9,429.4,229.9,429.4,229.9,429.4L229.9,429.4z"/>
		<path class="st1" d="M221.5,455c0,3.9-3.1,7-7,7c0,0,0,0,0,0h-18.9v-14h18.9C218.3,448,221.5,451.2,221.5,455z"/>
	</g>
</g>
</svg>
