<?xml version="1.0" encoding="utf-8"?>
<!-- Generator: Adobe Illustrator 22.0.0, SVG Export Plug-In . SVG Version: 6.00 Build 0)  -->
<svg version="1.1" id="Layer_1" xmlns="http://www.w3.org/2000/svg" xmlns:xlink="http://www.w3.org/1999/xlink" x="0px" y="0px"
	 viewBox="0 0 512 512" style="enable-background:new 0 0 512 512;" xml:space="preserve">
<style type="text/css">
	.st0{fill:#29ABE2;}
</style>
<g>
	<path class="st0" d="M489.9,214.4c-2.4-1.2-5.2-0.9-7.3,0.6l-11.4,8.5c-1.3-8.6-3.1-17.2-5.4-25.6l9.8-28.8
		c0.5-1.6,0.5-3.3-0.1-4.8l-11.3-28.5c-1.4-3.6-5.5-5.4-9.1-3.9c-1.4,0.6-2.6,1.5-3.4,2.8l-7.5,12.1c-5.6-9.6-11.9-18.8-18.9-27.4
		l-2.5-30.3c-0.1-1.7-0.9-3.2-2-4.4l-21.7-21.7c-2.7-2.7-7.2-2.7-9.9,0c-1.1,1.1-1.8,2.4-2,3.9l-2.1,14c-7-5.2-14.3-9.9-21.9-14.2
		l-13.5-27.3c-0.7-1.5-2-2.7-3.5-3.3l-28.1-12.2c-3.5-1.5-7.7,0.1-9.2,3.6c-0.6,1.4-0.7,2.9-0.4,4.4l3.2,13.8
		c-10.7-2.8-21.7-4.8-32.7-6l-23.2-19.7c-1.3-1.1-2.9-1.7-4.5-1.7h-30.7c-3.9,0-7,3.1-7,7c0,1.5,0.5,3,1.4,4.2l8.5,11.4
		c-8.6,1.3-17.2,3.1-25.6,5.4l-28.8-9.8c-1.6-0.5-3.3-0.5-4.8,0.1l-28.5,11.3c-3.6,1.4-5.4,5.5-3.9,9.1c0.6,1.4,1.5,2.6,2.8,3.4
		l12.1,7.5c-9.6,5.6-18.8,11.9-27.4,18.9l-30.3,2.5c-1.7,0.1-3.2,0.9-4.4,2l-21.7,21.7c-2.7,2.7-2.7,7.2,0,9.9
		c1.1,1.1,2.4,1.8,3.9,2l14,2.1c-5.2,7-9.9,14.3-14.2,21.9l-27.3,13.5c-1.5,0.7-2.7,2-3.3,3.5l-12.2,28.1c-1.5,3.5,0.1,7.7,3.6,9.2
		c1.4,0.6,2.9,0.7,4.4,0.4l13.8-3.2c-2.8,10.7-4.8,21.7-6,32.7l-19.7,23.2c-1.1,1.3-1.7,2.9-1.7,4.5v30.7c0,3.9,3.1,7,7,7
		c1.5,0,3-0.5,4.2-1.4l11.4-8.5c1.3,8.6,3.1,17.1,5.4,25.5l-9.8,28.8c-0.5,1.6-0.5,3.3,0.1,4.8l11.3,28.5c1.4,3.6,5.5,5.4,9.1,3.9
		c1.4-0.6,2.6-1.5,3.4-2.8l7.5-12.1c5.6,9.6,11.9,18.8,18.9,27.5l2.5,30.3c0.1,1.7,0.9,3.2,2,4.4l21.7,21.7c2.7,2.7,7.2,2.7,9.9,0
		c1.1-1.1,1.8-2.4,2-3.9l2.1-14c7,5.2,14.3,9.9,21.9,14.2l13.5,27.3c0.7,1.5,2,2.7,3.5,3.3l28.1,12.2c3.5,1.5,7.7-0.1,9.2-3.6
		c0.6-1.4,0.7-2.9,0.4-4.4l-3.2-13.8c10.7,2.8,21.7,4.8,32.7,6l23.2,19.7c1.3,1.1,2.9,1.7,4.5,1.7h30.7c3.9,0,7-3.1,7-7
		c0-1.5-0.5-3-1.4-4.2l-8.5-11.4c8.6-1.3,17.2-3.1,25.6-5.4l28.8,9.8c1.6,0.5,3.3,0.5,4.8-0.1l28.5-11.3c3.6-1.4,5.4-5.5,3.9-9.1
		c-0.6-1.4-1.5-2.6-2.8-3.4l-12.1-7.5c9.6-5.6,18.8-11.9,27.4-18.9l30.3-2.5c1.7-0.1,3.2-0.9,4.4-2l21.7-21.7c2.7-2.7,2.7-7.2,0-9.9
		c-1.1-1.1-2.4-1.8-3.9-2l-14-2.1c5.2-7,9.9-14.3,14.2-21.9l27.3-13.5c1.5-0.7,2.7-2,3.3-3.5l12.2-28.1c1.5-3.5-0.1-7.7-3.6-9.2
		c-1.4-0.6-2.9-0.7-4.4-0.4l-13.8,3.2c2.8-10.7,4.8-21.7,6-32.7l19.7-23.2c1.1-1.3,1.7-2.9,1.7-4.5v-30.7
		C493.7,218,492.3,215.5,489.9,214.4z M479.8,248.7l-19.3,22.8c-1,1.1-1.6,2.5-1.7,4c-1.4,14.8-4.5,29.4-9.1,43.6
		c-1.2,3.7,0.8,7.6,4.5,8.8c1.2,0.4,2.5,0.4,3.7,0.2l12-2.8l-5.6,13l-27,13.3c-1.3,0.6-2.3,1.6-3,2.9c-6.1,11.1-13.3,21.6-21.3,31.3
		c-2.5,3-2.1,7.4,0.9,9.9c1,0.8,2.2,1.4,3.5,1.5l12.2,1.8l-10,10l-29.8,2.4c-1.5,0.1-2.9,0.7-4,1.6c-11.5,9.5-24,17.7-37.3,24.4
		c-3.4,1.8-4.8,6-3,9.4c0.5,1,1.3,1.9,2.2,2.5c0.1,0.1,0.2,0.2,0.4,0.2l10.4,6.5l-13.2,5.2l-28.7-9.7c-1.3-0.4-2.7-0.4-3.9,0
		c-12.2,3.5-24.6,5.9-37.2,7c-3.8,0.4-6.7,3.8-6.3,7.6c0.1,1.3,0.6,2.5,1.3,3.5l7.3,9.9h-14.2l-22.9-19.4c-1.1-0.9-2.4-1.5-3.9-1.6
		c-14.8-1.4-29.4-4.5-43.6-9.1c-3.7-1.2-7.6,0.8-8.8,4.5c-0.4,1.2-0.5,2.5-0.2,3.7l2.8,12l-13-5.6l-13.3-26.9
		c-0.6-1.3-1.6-2.3-2.9-3c-11.1-6.1-21.6-13.3-31.3-21.3c-3-2.5-7.4-2.1-9.9,0.9c-0.8,1-1.3,2.2-1.5,3.4l-1.8,12.2l-10-10l-2.5-29.9
		c-0.1-1.4-0.7-2.8-1.6-3.9c-9.5-11.5-17.7-24-24.4-37.3c-1.1-2.2-3.4-3.7-5.9-3.8c-2.5-0.1-4.9,1.1-6.2,3.3l-6.5,10.5L50.6,345
		l9.7-28.5c0.5-1.4,0.5-2.8,0.1-4.2c-3.5-12.2-5.9-24.6-7-37.2c-0.4-3.8-3.8-6.7-7.6-6.3c-1.3,0.1-2.5,0.6-3.5,1.3l-10,7.3v-14.2
		l19.4-22.9c0.9-1.1,1.5-2.4,1.6-3.9c1.4-14.8,4.5-29.4,9.1-43.6c1.2-3.7-0.8-7.6-4.5-8.8c-1.2-0.4-2.5-0.5-3.7-0.2l-12,2.8l5.6-13
		l26.9-13.3c1.3-0.6,2.3-1.6,3-2.9c6.1-11.1,13.3-21.6,21.3-31.3c2.5-3,2.1-7.4-0.9-9.9c-1-0.8-2.2-1.3-3.4-1.5L82.6,113l10-10
		l29.9-2.5c1.4-0.1,2.8-0.7,3.9-1.6c11.5-9.5,24-17.7,37.3-24.4c3.4-1.8,4.8-6,3.1-9.4c-0.6-1.1-1.5-2.1-2.5-2.8l-10.5-6.5l13.2-5.2
		l28.5,9.7c1.4,0.5,2.8,0.5,4.2,0.1c12.2-3.5,24.6-5.9,37.2-7c3.9-0.4,6.7-3.8,6.3-7.7c-0.1-1.3-0.6-2.5-1.4-3.5l-7.3-9.9h14.2
		l22.8,19.3c1.1,1,2.5,1.6,4,1.8c14.8,1.4,29.4,4.5,43.6,9.1c3.7,1.2,7.6-0.8,8.8-4.5c0.4-1.2,0.4-2.5,0.2-3.7l-2.8-12l13,5.6
		l13.3,27c0.6,1.3,1.6,2.3,2.9,3c11.1,6.1,21.6,13.3,31.3,21.3c3,2.5,7.4,2,9.9-0.9c0.8-1,1.3-2.2,1.5-3.4l1.8-12.2l10,10l2.4,29.8
		c0.1,1.5,0.7,2.9,1.6,4c9.5,11.5,17.7,24,24.4,37.3c1.8,3.4,6,4.8,9.4,3c1-0.5,1.9-1.3,2.5-2.2c0.1-0.1,0.2-0.2,0.2-0.4l6.5-10.4
		l5.2,13.2l-9.7,28.7c-0.4,1.3-0.4,2.7,0,3.9c3.5,12.2,5.9,24.6,7,37.2c0.4,3.9,3.8,6.7,7.7,6.3c1.3-0.1,2.5-0.6,3.5-1.4l9.9-7.3
		L479.8,248.7z"/>
	<path class="st0" d="M256,165.8c-49.8,0-90.2,40.4-90.2,90.2s40.4,90.2,90.2,90.2s90.2-40.4,90.2-90.2l0,0
		C346.1,206.2,305.8,165.9,256,165.8z M256,332.2c-42.1,0-76.2-34.1-76.2-76.2s34.1-76.2,76.2-76.2s76.2,34.1,76.2,76.2
		C332.1,298,298,332.1,256,332.2z"/>
	<path class="st0" d="M328.9,121.8c-3.4-1.8-7.6-0.6-9.5,2.8c-1.8,3.4-0.6,7.6,2.8,9.5l0,0c44.7,24.3,72.5,71.1,72.5,121.9
		c0,3.9,3.1,7,7,7s7-3.1,7-7C408.7,200,378.1,148.5,328.9,121.8z"/>
	<path class="st0" d="M263.6,117.5c7.8,0.4,15.6,1.5,23.2,3.2c0.5,0.1,1,0.2,1.6,0.2c3.9,0,7-3.1,7-7c0-3.3-2.3-6.1-5.5-6.8
		c-8.4-1.9-16.9-3.1-25.5-3.5c-3.9-0.1-7.1,2.9-7.2,6.8C257,114,259.9,117.2,263.6,117.5L263.6,117.5z"/>
	<path class="st0" d="M189.8,377.9c-44.7-24.3-72.5-71.1-72.5-121.9c0-3.9-3.1-7-7-7s-7,3.1-7,7c0,56,30.6,107.5,79.8,134.2
		c3.4,1.8,7.6,0.6,9.5-2.8C194.4,384,193.2,379.8,189.8,377.9z"/>
	<path class="st0" d="M249.6,394.6c-8.2-0.4-16.4-1.5-24.4-3.3c-3.8-0.9-7.5,1.5-8.4,5.3c-0.9,3.8,1.5,7.5,5.3,8.4l0,0
		c8.8,2,17.8,3.2,26.9,3.6h0.3c3.9,0.1,7.1-3,7.2-6.8S253.5,394.7,249.6,394.6L249.6,394.6z"/>
	<path class="st0" d="M256,211.3c-24.7,0-44.7,20-44.7,44.7s20,44.7,44.7,44.7s44.7-20,44.7-44.7l0,0
		C300.6,231.4,280.6,211.4,256,211.3z M256,286.7c-16.9,0-30.7-13.7-30.7-30.7s13.7-30.7,30.7-30.7c16.9,0,30.7,13.7,30.7,30.7
		C286.6,272.9,272.9,286.6,256,286.7z"/>
</g>
</svg>
