<?xml version="1.0" encoding="utf-8"?>
<!-- Generator: Adobe Illustrator 22.0.0, SVG Export Plug-In . SVG Version: 6.00 Build 0)  -->
<svg version="1.1" id="Layer_1" xmlns="http://www.w3.org/2000/svg" xmlns:xlink="http://www.w3.org/1999/xlink" x="0px" y="0px"
	 viewBox="0 0 512 512" style="enable-background:new 0 0 512 512;" xml:space="preserve">
<style type="text/css">
	.st0{fill:#29ABE2;}
</style>
<g id="Engineering">
	<path class="st0" d="M488,296c4.4,0,8-3.6,8-8v-64c0-4.4-3.6-8-8-8h-44.3c-4.9-22.9-13.9-44.8-26.7-64.5l31.3-31.3
		c3.1-3.1,3.1-8.2,0-11.3l-45.2-45.2c-3.1-3.1-8.2-3.1-11.3,0L360.5,95c-19.7-12.8-41.5-21.8-64.5-26.7V24c0-4.4-3.6-8-8-8h-64
		c-4.4,0-8,3.6-8,8v44.3c-22.9,4.9-44.8,13.9-64.5,26.7l-31.3-31.3c-3.1-3.1-8.2-3.1-11.3,0l-45.2,45.2c-3.1,3.1-3.1,8.2,0,11.3
		L95,151.5c-12.8,19.7-21.8,41.5-26.7,64.5H24c-4.4,0-8,3.6-8,8v64c0,4.4,3.6,8,8,8h44.3c4.9,22.9,13.9,44.8,26.7,64.5l-31.3,31.3
		c-3.1,3.1-3.1,8.2,0,11.3l45.2,45.2c3.1,3.1,8.2,3.1,11.3,0l31.3-31.3c19.7,12.8,41.5,21.8,64.5,26.7V488c0,4.4,3.6,8,8,8h64
		c4.4,0,8-3.6,8-8v-44.3c22.9-4.9,44.8-13.9,64.4-26.7l65.3,65.3c15.7,15.6,41,15.4,56.6-0.2c15.5-15.6,15.5-40.7,0-56.3L417,360.4
		c12.8-19.7,21.9-41.5,26.7-64.4H488z M471,471c-9.4,9.4-24.6,9.4-33.9,0c0,0,0,0,0,0L283.8,317.8c-7.5-7.5-17.7-11.7-28.3-11.6
		c-1.7,0-3.3,0.1-5,0.3c-35.1,4.2-66.9-20.8-71.1-55.9c-1-8.1-0.4-16.3,1.7-24.2l35.3,35.3c1.5,1.5,3.5,2.3,5.7,2.3H256
		c4.4,0,8-3.6,8-8v-34c0-2.1-0.8-4.2-2.3-5.7l-35.3-35.3c34.1-9.1,69.2,11.1,78.3,45.3c2.1,7.9,2.7,16,1.7,24.1
		c-1.6,12.3,2.6,24.6,11.4,33.3L471,437C480.3,446.4,480.3,461.6,471,471C471,471,471,471,471,471z M329.1,272.6
		c-5.2-5.3-7.7-12.7-6.8-20.1c5.3-43.8-26-83.7-69.8-88.9c-15.1-1.8-30.4,0.7-44.1,7.3c-4,1.9-5.7,6.7-3.8,10.7
		c0.4,0.8,0.9,1.6,1.6,2.2l41.7,41.7V248h-22.6l-41.7-41.7c-3.1-3.1-8.2-3.1-11.3,0c-0.6,0.6-1.2,1.4-1.6,2.2
		c-19.1,39.8-2.2,87.6,37.6,106.6c13.7,6.6,29,9.1,44,7.3c7.4-1,14.8,1.5,20.1,6.8l41.2,41.1c-63.1,31.9-140.2,6.6-172.1-56.6
		s-6.6-140.2,56.6-172.1s140.2-6.6,172.1,56.6c18.3,36.3,18.3,79.2,0,115.5L329.1,272.6z M429.2,286.7
		c-3.9,22.1-11.9,43.2-23.8,62.2l-23.4-23.4c38.5-69.7,13.1-157.4-56.6-195.9s-157.4-13.1-195.9,56.6s-13.1,157.4,56.6,195.9
		c43.4,23.9,96,23.9,139.3,0l23.4,23.4c-19,11.9-40.2,19.9-62.2,23.8c-3.8,0.7-6.6,4-6.6,7.8V480h-48v-42.9c0-3.9-2.8-7.2-6.6-7.9
		c-25.2-4.4-49.2-14.3-70.2-29.1c-3.2-2.2-7.5-1.9-10.3,0.9l-30.3,30.3l-33.9-33.9l30.3-30.3c2.7-2.7,3.1-7.1,0.9-10.3
		c-14.7-21-24.7-44.9-29.1-70.2c-0.7-3.9-4-6.7-7.9-6.6H32v-48h42.9c3.9,0,7.2-2.8,7.9-6.6c4.4-25.2,14.3-49.2,29.1-70.2
		c2.2-3.2,1.9-7.5-0.9-10.3l-30.3-30.3l33.9-33.9l30.3,30.3c2.7,2.7,7.1,3.1,10.3,0.9c21-14.7,44.9-24.7,70.2-29.1
		c3.9-0.7,6.7-4,6.6-7.9V32h48v42.9c0,3.9,2.8,7.2,6.6,7.9c25.3,4.4,49.2,14.3,70.2,29.1c3.2,2.2,7.5,1.9,10.3-0.9l30.3-30.3
		l33.9,33.9l-30.3,30.3c-2.7,2.7-3.1,7.1-0.9,10.3c14.7,21,24.7,44.9,29.1,70.2c0.7,3.8,4,6.6,7.9,6.6H480v48h-42.9
		C433.2,280,429.9,282.8,429.2,286.7L429.2,286.7z"/>
	<path class="st0" d="M306.9,295.6c-3.1-3.2-8.1-3.3-11.3-0.2c-3.2,3.1-3.3,8.1-0.2,11.3c0.1,0.1,0.1,0.1,0.2,0.2l5.7,5.7
		c3.2,3.1,8.2,3,11.3-0.2c3-3.1,3-8,0-11.1L306.9,295.6z"/>
	<path class="st0" d="M420,431.4c3.2,3.1,8.2,3,11.3-0.2c3-3.1,3-8,0-11.1l-96.2-96.2c-3.1-3.1-8.2-3.1-11.3,0s-3.1,8.2,0,11.3
		L420,431.4z"/>
	<path class="st0" d="M448.3,459.6c3.2,3.1,8.2,3,11.3-0.2c3-3.1,3-8,0-11.1l-5.7-5.7c-3.1-3.1-8.2-3.1-11.3,0s-3.1,8.2,0,11.3
		L448.3,459.6z"/>
</g>
</svg>
