<?xml version="1.0" encoding="utf-8"?>
<!-- Generator: Adobe Illustrator 22.0.0, SVG Export Plug-In . SVG Version: 6.00 Build 0)  -->
<svg version="1.1" id="Layer_1" xmlns="http://www.w3.org/2000/svg" xmlns:xlink="http://www.w3.org/1999/xlink" x="0px" y="0px"
	 viewBox="0 0 512 512" style="enable-background:new 0 0 512 512;" xml:space="preserve">
<style type="text/css">
	.st0{fill:none;}
	.st1{fill:#29ABE2;}
</style>
<g>
	<path class="st0" d="M372,220.5h40v220h-40V220.5z"/>
	<path class="st0" d="M250,190.5c0,22.1,17.9,40,40,40h82v200H250c-110.5,0-200-89.5-200-200v-119h200V190.5z"/>
	<path class="st0" d="M502,240.5v180h-90v-180H502z"/>
	<path class="st0" d="M290,91.5c0-11-9-20-20-20H30c-11,0-20,9-20,20s9,20,20,20h240C281,111.5,290,102.5,290,91.5z"/>
	<g>
		<circle class="st1" cx="94.5" cy="356.3" r="10"/>
		<path class="st1" d="M502,230.5h-80v-10c0-5.5-4.5-10-10-10h-40c-5.5,0-10,4.5-10,10h-72c-16.5,0-30-13.5-30-30v-69h10
			c16.5,0,30-13.5,30-30s-13.5-30-30-30H30c-16.5,0-30,13.5-30,30s13.5,30,30,30h10v109c0,16.3,1.9,32.5,5.6,48.2
			c3.6,15.3,8.9,30.1,15.8,44.2c1.7,3.5,5.1,5.6,9,5.6c1.5,0,3-0.3,4.4-1c4.9-2.4,7-8.4,4.6-13.4C66.5,288,60,259.8,60,230.5v-109
			h180v69c0,6.8,1.3,13.3,3.9,19.5c2.5,6,6.1,11.3,10.7,15.9c4.6,4.6,9.9,8.2,15.9,10.7c6.2,2.6,12.7,3.9,19.5,3.9h72v180H250
			c-43,0-83.6-14-117.3-40.5c-1.8-1.4-3.9-2.1-6.2-2.1c-3.1,0-6,1.4-7.9,3.8c-1.7,2.1-2.4,4.7-2.1,7.4c0.3,2.7,1.6,5,3.7,6.7
			c18.1,14.2,38.2,25.3,59.9,32.9c22.4,7.9,45.9,11.9,69.8,11.9h112c0,5.5,4.5,10,10,10h40c5.5,0,10-4.5,10-10v-10h80
			c5.5,0,10-4.5,10-10v-180C512,235,507.5,230.5,502,230.5z M30,101.5c-5.5,0-10-4.5-10-10s4.5-10,10-10h240c5.5,0,10,4.5,10,10
			s-4.5,10-10,10H30z M492,282.4l-70,64.4V314l70-62.6V282.4z M422,373.9l70-64.4v33.6l-70,64.1V373.9z M463,250.5l-41,36.6v-36.6
			L463,250.5z M402,430.5h-20v-200h20V430.5z M448,410.5l44-40.3v40.3H448z"/>
	</g>
</g>
</svg>
