<?xml version="1.0" encoding="utf-8"?>
<!-- Generator: Adobe Illustrator 22.0.0, SVG Export Plug-In . SVG Version: 6.00 Build 0)  -->
<svg version="1.1" id="Layer_1_1_" xmlns="http://www.w3.org/2000/svg" xmlns:xlink="http://www.w3.org/1999/xlink" x="0px" y="0px"
	 viewBox="0 0 512 512" style="enable-background:new 0 0 512 512;" xml:space="preserve">
<style type="text/css">
	.st0{fill:#29ABE2;}
</style>
<path class="st0" d="M352,344c-30.9,0-56,25.1-56,56s25.1,56,56,56s56-25.1,56-56S382.9,344,352,344z M352,440
	c-22.1,0-40-17.9-40-40s17.9-40,40-40s40,17.9,40,40S374.1,440,352,440z M252.1,338.3l-12.5-16c6-9.8,10.4-20.5,13.1-31.8l20.2-2.5
	c4-0.5,7-3.9,7-7.9v-32c0-4-3-7.4-7-7.9l-20.2-2.5c-2.7-11.3-7.1-21.9-13.1-31.8l12.5-16c2.5-3.2,2.2-7.7-0.7-10.6l-22.6-22.6
	c-2.9-2.9-7.4-3.1-10.6-0.7l-16,12.5c-9.8-6-20.5-10.4-31.8-13.1l-2.5-20.2c-0.5-4-3.9-7-7.9-7h-32c-4,0-7.4,3-7.9,7l-2.5,20.2
	c-11.3,2.7-21.9,7.1-31.8,13.1l-16-12.5c-3.2-2.5-7.7-2.2-10.6,0.7l-22.6,22.6c-2.8,2.8-3.1,7.4-0.7,10.6l12.5,16
	c-6,9.8-10.4,20.5-13.1,31.8L15,240.1c-4,0.5-7,3.9-7,7.9v32c0,4,3,7.4,7,7.9l20.2,2.5c2.7,11.3,7.1,21.9,13.1,31.8l-12.5,16
	c-2.5,3.2-2.2,7.7,0.7,10.6l22.6,22.6c2.9,2.9,7.4,3.1,10.6,0.7l16-12.5c9.8,6,20.5,10.4,31.8,13.1l2.5,20.2c0.5,4,3.9,7,7.9,7h32
	c4,0,7.4-3,7.9-7l2.5-20.2c11.3-2.7,21.9-7.1,31.8-13.1l16,12.5c3.2,2.5,7.7,2.2,10.6-0.7l22.6-22.6
	C254.3,346,254.6,341.5,252.1,338.3L252.1,338.3z M223.5,327.6l11.6,15l-12.6,12.6l-15-11.6c-2.8-2.2-6.6-2.2-9.4-0.3
	c-11,7.5-23.2,12.6-36.4,15c-3.4,0.6-6,3.4-6.5,6.9l-2.4,18.8h-17.9l-2.4-18.8c-0.4-3.5-3-6.2-6.5-6.9c-13.2-2.5-25.4-7.5-36.4-15
	c-2.9-2-6.7-1.9-9.4,0.3l-15,11.6l-12.6-12.6l11.6-15c2.1-2.8,2.3-6.6,0.3-9.4c-7.5-11-12.6-23.2-15-36.4c-0.6-3.4-3.4-6-6.9-6.5
	L24,272.9v-17.9l18.8-2.4c3.5-0.4,6.2-3,6.9-6.5c2.5-13.2,7.5-25.4,15-36.4c2-2.9,1.8-6.7-0.3-9.4l-11.6-15l12.6-12.6l15,11.6
	c2.8,2.2,6.6,2.3,9.4,0.3c11-7.5,23.2-12.6,36.4-15c3.4-0.6,6-3.4,6.5-6.9l2.4-18.8h17.9l2.4,18.8c0.4,3.5,3,6.2,6.5,6.9
	c13.2,2.5,25.4,7.5,36.4,15c2.8,2,6.7,1.9,9.4-0.3l15-11.6l12.6,12.6l-11.6,15c-2.1,2.8-2.3,6.6-0.3,9.4c7.5,11,12.6,23.2,15,36.4
	c0.6,3.4,3.4,6,6.9,6.5l18.8,2.4v17.9l-18.8,2.4c-3.5,0.4-6.2,3-6.9,6.5c-2.5,13.2-7.5,25.4-15,36.4
	C221.3,321,221.4,324.8,223.5,327.6L223.5,327.6z M144,184c-44.1,0-80,35.9-80,80s35.9,80,80,80s80-35.9,80-80S188.1,184,144,184
	L144,184z M144,328c-35.3,0-64-28.7-64-64s28.7-64,64-64s64,28.7,64,64S179.3,328,144,328z M344,256c30.9,0,56-25.1,56-56
	c0-17.7-7.9-34.2-21.7-45.2c-12.2-9.8-20.7-23.7-23.8-39l-2.7-13.3c-0.7-3.7-4-6.4-7.8-6.4s-7.1,2.7-7.8,6.4l-2.7,13.3
	c-3.1,15.4-11.5,29.2-23.8,39C295.9,165.8,288,182.3,288,200C288,230.9,313.1,256,344,256z M319.7,167.3
	c10.6-8.5,18.9-19.5,24.3-31.8c5.3,12.3,13.6,23.3,24.3,31.8c10,8,15.7,19.9,15.7,32.7c0,22.1-17.9,40-40,40s-40-17.9-40-40
	C304,187.2,309.7,175.3,319.7,167.3z M344,232v-16c8.8,0,16-7.2,16-16h16C376,217.6,361.6,232,344,232z M482.3,66.8
	c-12.2-9.8-20.7-23.7-23.8-39l-2.7-13.3c-0.7-3.7-4-6.4-7.8-6.4s-7.1,2.7-7.8,6.4l-2.7,13.3c-3.1,15.4-11.5,29.2-23.8,39
	C399.9,77.8,392,94.3,392,112c0,30.9,25.1,56,56,56s56-25.1,56-56C504,94.3,496.1,77.8,482.3,66.8z M448,152c-22.1,0-40-17.9-40-40
	c0-12.8,5.7-24.7,15.7-32.7c10.6-8.5,18.9-19.5,24.3-31.8c5.3,12.3,13.6,23.3,24.3,31.8c10,8,15.7,19.9,15.7,32.7
	C488,134.1,470.1,152,448,152z M480,112c0,17.6-14.4,32-32,32v-16c8.8,0,16-7.2,16-16H480z M448,376h-11.3
	c-1.9-6.6-4.5-12.9-7.8-18.9l8-8c3.1-3.1,3.1-8.2,0-11.3l-22.6-22.6c-3.1-3.1-8.2-3.1-11.3,0l-8,8c-6-3.4-12.3-6-18.9-7.8V304
	c0-4.4-3.6-8-8-8h-32c-4.4,0-8,3.6-8,8v11.3c-6.6,1.9-12.9,4.5-18.9,7.8l-8-8c-3.1-3.1-8.2-3.1-11.3,0l-22.6,22.6
	c-3.1,3.1-3.1,8.2,0,11.3l8,8c-3.4,6-6,12.3-7.8,18.9H256c-4.4,0-8,3.6-8,8v32c0,4.4,3.6,8,8,8h11.3c1.9,6.6,4.5,12.9,7.8,18.9l-8,8
	c-3.1,3.1-3.1,8.2,0,11.3l22.6,22.6c3.1,3.1,8.2,3.1,11.3,0l8-8c6,3.4,12.3,6,18.9,7.8V496c0,4.4,3.6,8,8,8h32c4.4,0,8-3.6,8-8
	v-11.3c6.6-1.9,12.9-4.5,18.9-7.8l8,8c3.1,3.1,8.2,3.1,11.3,0l22.6-22.6c3.1-3.1,3.1-8.2,0-11.3l-8-8c3.4-6,6-12.3,7.8-18.9H448
	c4.4,0,8-3.6,8-8v-32C456,379.6,452.4,376,448,376z M440,408h-9.6c-3.8,0-7.1,2.7-7.8,6.4c-1.8,9-5.4,17.5-10.5,25.3
	c-2.1,3.2-1.7,7.4,1,10.1l6.8,6.8l-11.3,11.3l-6.8-6.8c-2.7-2.7-6.9-3.1-10.1-1c-7.8,5.1-16.2,8.7-25.3,10.5c-3.7,0.8-6.4,4-6.4,7.8
	v9.6h-16v-9.6c0-3.8-2.7-7.1-6.4-7.8c-9-1.8-17.5-5.4-25.3-10.5c-3.2-2.1-7.4-1.7-10.1,1l-6.8,6.8l-11.3-11.3l6.8-6.8
	c2.7-2.7,3.1-6.9,1-10.1c-5.1-7.8-8.7-16.2-10.5-25.3c-0.8-3.7-4-6.4-7.8-6.4H264v-16h9.6c3.8,0,7.1-2.7,7.8-6.4
	c1.8-9,5.4-17.5,10.5-25.3c2.1-3.2,1.7-7.4-1-10.1l-6.8-6.8l11.3-11.3l6.8,6.8c2.7,2.7,6.9,3.1,10.1,1c7.8-5.1,16.2-8.7,25.3-10.5
	c3.7-0.8,6.4-4,6.4-7.8V312h16v9.6c0,3.8,2.7,7.1,6.4,7.8c9,1.8,17.5,5.4,25.3,10.5c3.2,2.1,7.4,1.7,10.1-1l6.8-6.8l11.3,11.3
	l-6.8,6.8c-2.7,2.7-3.1,6.9-1,10.1c5.1,7.8,8.7,16.2,10.5,25.3c0.8,3.7,4,6.4,7.8,6.4h9.6V408z"/>
</svg>
