<svg xmlns="http://www.w3.org/2000/svg" viewBox="0 0 367.12 77.04"><defs><style>.cls-1{fill:#fff200;}.cls-2,.cls-5{fill:#0d72b9;}.cls-2,.cls-3,.cls-4{stroke:#fff;stroke-miterlimit:10;stroke-width:2px;}.cls-3,.cls-6{fill:#0100fb;}.cls-4,.cls-7{fill:#0080ff;}.cls-8{fill:#fff;}</style></defs><g id="Layer_2" data-name="Layer 2"><g id="Layer_1-2" data-name="Layer 1"><path class="cls-1" d="M78.43,22.32H71l.33-1.84H69.52l1.63-9.24H69.31l.32-1.84h1.85l.65-3.7h3.69l-.65,3.7h5.54l-.33,1.84H74.84l-1.62,9.24h5.54Z"/><path class="cls-1" d="M93.2,22.32H89.51l1.95-11.08H87.77l-2,11.08H82.13L85.05,5.7h3.7L88.1,9.4h5.54l-.33,1.84h1.85Z"/><path class="cls-1" d="M108,22.32H96.9l.32-1.84h3.69l1.63-9.24H98.85l.33-1.84h7.38l-2,11.08h3.69ZM106.89,7.55h-3.7l.65-3.69h3.7Z"/><path class="cls-1" d="M123.72,16.78h-7.38l-.65,3.7h5.54l-.33,1.84h-7.38l.32-1.84H112l1.63-9.24h1.85l.32-1.84h7.39l-.33,1.84h1.85Zm-.21-9.23h-3.7l.33-1.85h-1.85L118,7.55h-3.7l.33-1.85h1.85l.32-1.84h1.85L118.94,2h1.85l-.33,1.85h1.85L122,5.7h1.85Zm-3.15,7.39.65-3.7h-3.7l-.65,3.7ZM122.64,2h1.84l.33-1.84h3.69L128.18,2h-1.85L126,3.86h-3.69Z"/><path class="cls-1" d="M137.52,22.32h-7.39l.33-1.84h-1.85l1.63-9.24h-1.85l.33-1.84h1.85l.65-3.7h3.69l-.65,3.7h5.54l-.33,1.84h-5.54l-1.62,9.24h5.54Z"/><path class="cls-1" d="M124.62,63.49h-3.39l-.59,3.39H107.1l.59-3.39h-3.38l4.18-23.69h3.38l.6-3.39H126l-.6,3.39h3.39l-1.2,6.77h-6.77L122,39.8h-6.77l-4.18,23.69h6.77L119,56.72h6.77Z"/><path class="cls-1" d="M150.62,63.49h-3.39l-.59,3.39H133.09l.6-3.39h-3.38l4.18-23.69h3.38l.6-3.39H152l-.6,3.39h3.39Zm-.8-33.85h-6.77l-.6,3.39h-6.77l.6-3.39h3.38l.6-3.38h3.38l.6-3.39H151l-.6,3.39h3.39l-.6,3.38h3.39L156,33h-6.77Zm-6,33.85L148,39.8h-6.77l-4.18,23.69Z"/><path class="cls-1" d="M178.32,66.88h-6.77l1.79-10.16H170l.59-3.38h-3.38l.6-3.39h-3.39l-3,16.93h-6.77L160,36.41h6.77l-1.19,6.77H169l-.6,3.39h3.39l-.6,3.38h3.39l2.38-13.54h6.77Z"/><path class="cls-1" d="M203.1,66.88H186.18l.59-3.39h-3.38l4.18-23.69H191l.6-3.39h13.54l-.6,3.39h3.39l-1.2,6.77h-6.77l1.2-6.77h-6.77l-4.18,23.69h6.77l1.19-6.77h-3.38l.59-3.38h10.16Z"/><path class="cls-1" d="M245.49,66.88h-6.78l1.8-10.16h-3.39l.6-3.38h-3.39l.6-3.39h-3.39l-3,16.93h-6.77l5.37-30.47h6.77l-1.19,6.77h3.38l-.59,3.39h3.38L238.32,50h3.38l2.39-13.54h6.77Z"/><path class="cls-1" d="M270.27,66.88H253.34l.6-3.39h-3.39l4.18-23.69h3.39l.59-3.39h13.54l-.59,3.39H275l-1.19,6.77h-6.77l1.19-6.77H261.5l-4.18,23.69h6.77l1.2-6.77H261.9l.6-3.38h10.15Z"/><path class="cls-1" d="M295.18,66.88h-6.77l2.39-13.54H284l-2.39,13.54h-6.77l5.37-30.47H287L284.63,50h6.77l2.38-13.54h6.77Z"/><path class="cls-1" d="M313.46,66.88H299.92l.6-3.39h3.38l4.18-23.69H304.7l.59-3.39h13.55l-.6,3.39h-3.39l-4.18,23.69h3.39Z"/><path class="cls-1" d="M337.43,66.88H317.12l5.37-30.47H342.8l-.59,3.39H328.67L326.88,50H337l-.6,3.39H326.28l-1.79,10.15H338ZM328.87,77H322.1l1.19-6.78h6.77ZM343.4,33h-6.77l.6-3.39h-6.77l-.6,3.39h-6.77l.6-3.39h3.38l.6-3.38h3.38l.6-3.39h6.77l-.6,3.39h3.39l-.6,3.38H344Z"/><path class="cls-1" d="M365.33,50H362l-.6,3.39H351.19L348.8,66.88H342l5.38-30.47h16.92l-.59,3.39h3.38Zm-6.77,0,1.79-10.15h-6.77L351.79,50Z"/><path class="cls-1" d="M99.13,71.65l.6-3.39h265.4l-.59,3.39Z"/><path class="cls-1" d="M168.08,20.48h-1.84l-.33,1.84h-9.23L159.61,5.7h3.69l-.65,3.7h5.54l-.32,1.84h1.84Zm-3.69,0L166,11.24h-3.69l-1.63,9.24Z"/><path class="cls-1" d="M182.53,22.32H171.45l.33-1.84h3.69l1.63-9.24h-3.69l.32-1.84h7.39l-2,11.08h3.7Zm-4.67,5.54h-3.69l.65-3.69h3.69Zm3.58-20.31h-3.69l.65-3.69h3.69Z"/><ellipse class="cls-2" cx="35.88" cy="23.78" rx="14.75" ry="14.67"/><ellipse class="cls-3" cx="35.88" cy="23.78" rx="12.02" ry="11.95"/><path class="cls-4" d="M35.88,1a22.78,22.78,0,1,0,22.9,22.78A22.85,22.85,0,0,0,35.88,1Zm-.09,42.92A20.3,20.3,0,1,1,56.2,23.63,20.35,20.35,0,0,1,35.79,43.92Z"/><path class="cls-4" d="M70,30.85l-3.59-3.6a1,1,0,0,0-1.31-.1L37.51,54.57H34.26L6.68,27.15a1,1,0,0,0-1.31.1l-3.59,3.6a.92.92,0,0,0,0,1.07L33.59,63.63v0h4.59v0L70,31.92A.94.94,0,0,0,70,30.85Z"/><ellipse class="cls-5" cx="35.88" cy="23.78" rx="14.75" ry="14.67"/><ellipse class="cls-6" cx="35.88" cy="23.78" rx="12.02" ry="11.95"/><path class="cls-7" d="M35.88,1a22.78,22.78,0,1,0,22.9,22.78A22.85,22.85,0,0,0,35.88,1Zm-.09,42.92A20.3,20.3,0,1,1,56.2,23.63,20.35,20.35,0,0,1,35.79,43.92Z"/><path class="cls-7" d="M70,30.85l-3.59-3.6a1,1,0,0,0-1.31-.1L37.51,54.57H34.26L6.68,27.15a1,1,0,0,0-1.31.1l-3.59,3.6a.92.92,0,0,0,0,1.07L33.59,63.63v0h4.59v0L70,31.92A.94.94,0,0,0,70,30.85Z"/><path class="cls-8" d="M0,72.65V65.84H1.36L3,70.66c.15.45.25.79.32,1,.08-.25.2-.61.37-1.09l1.64-4.74H6.54v6.81H5.66V67l-2,5.7H2.85l-2-5.8v5.8Z"/><path class="cls-8" d="M7.58,70.18a2.51,2.51,0,0,1,.77-2,2.32,2.32,0,0,1,1.56-.55,2.24,2.24,0,0,1,1.67.67,2.55,2.55,0,0,1,.65,1.84,3.25,3.25,0,0,1-.29,1.5,2,2,0,0,1-.84.85,2.42,2.42,0,0,1-1.19.3,2.25,2.25,0,0,1-1.69-.66A2.65,2.65,0,0,1,7.58,70.18Zm.86,0a2.08,2.08,0,0,0,.42,1.42,1.4,1.4,0,0,0,2.09,0,2.15,2.15,0,0,0,.41-1.45A2,2,0,0,0,11,68.77a1.4,1.4,0,0,0-2.09,0A2,2,0,0,0,8.44,70.18Z"/><path class="cls-8" d="M15.05,71.9l.12.74a3.1,3.1,0,0,1-.63.08,1.36,1.36,0,0,1-.71-.15.78.78,0,0,1-.36-.38,2.89,2.89,0,0,1-.1-1V68.37h-.62v-.65h.62V66.49l.83-.5v1.73h.85v.65H14.2v2.88a1.38,1.38,0,0,0,.05.46.36.36,0,0,0,.14.16.6.6,0,0,0,.29.06Z"/><path class="cls-8" d="M15.88,66.8v-1h.84v1Zm0,5.85V67.72h.84v4.93Z"/><path class="cls-8" d="M17.69,70.18a2.54,2.54,0,0,1,.76-2A2.36,2.36,0,0,1,20,67.6a2.27,2.27,0,0,1,1.68.67,2.55,2.55,0,0,1,.65,1.84,3.25,3.25,0,0,1-.29,1.5,2,2,0,0,1-.84.85,2.43,2.43,0,0,1-1.2.3,2.24,2.24,0,0,1-1.68-.66A2.65,2.65,0,0,1,17.69,70.18Zm.86,0A2.08,2.08,0,0,0,19,71.6a1.39,1.39,0,0,0,2.08,0,2.15,2.15,0,0,0,.42-1.45,2,2,0,0,0-.42-1.38,1.31,1.31,0,0,0-1-.47,1.29,1.29,0,0,0-1,.47A2,2,0,0,0,18.55,70.18Z"/><path class="cls-8" d="M23.32,72.65V67.72h.76v.7a1.77,1.77,0,0,1,1.58-.82,2.18,2.18,0,0,1,.82.16,1.42,1.42,0,0,1,.57.42,1.73,1.73,0,0,1,.26.62,5.23,5.23,0,0,1,0,.82v3h-.84v-3a2.17,2.17,0,0,0-.1-.77.82.82,0,0,0-.34-.4,1.15,1.15,0,0,0-.59-.15,1.35,1.35,0,0,0-.93.34A1.65,1.65,0,0,0,24.16,70v2.69Z"/><path class="cls-8" d="M31.31,66.8v-1h.84v1Zm0,5.85V67.72h.84v4.93Z"/><path class="cls-8" d="M33.43,72.65V67.72h.75v.7a1.79,1.79,0,0,1,1.58-.82,2.23,2.23,0,0,1,.83.16,1.31,1.31,0,0,1,.56.42,1.57,1.57,0,0,1,.26.62,4.91,4.91,0,0,1,.05.82v3h-.84v-3a2.17,2.17,0,0,0-.1-.77.79.79,0,0,0-.35-.4,1.09,1.09,0,0,0-.58-.15,1.35,1.35,0,0,0-.93.34A1.65,1.65,0,0,0,34.27,70v2.69Z"/><path class="cls-8" d="M41.21,70.46l.85-.07a1.86,1.86,0,0,0,.29.84,1.57,1.57,0,0,0,.68.53,2.78,2.78,0,0,0,1.06.2A2.35,2.35,0,0,0,45,71.8a1.22,1.22,0,0,0,.59-.42,1,1,0,0,0,.2-.58.92.92,0,0,0-.19-.56,1.36,1.36,0,0,0-.62-.4,12.26,12.26,0,0,0-1.22-.33,6.27,6.27,0,0,1-1.32-.43,1.83,1.83,0,0,1-.73-.63,1.58,1.58,0,0,1-.24-.85,1.8,1.8,0,0,1,.29-1,2,2,0,0,1,.86-.68,3.4,3.4,0,0,1,1.26-.23,3.27,3.27,0,0,1,1.34.25,2,2,0,0,1,.9.71,2.12,2.12,0,0,1,.34,1.08l-.87.06a1.39,1.39,0,0,0-.48-1,1.85,1.85,0,0,0-1.19-.33,1.92,1.92,0,0,0-1.2.3.9.9,0,0,0-.38.72.77.77,0,0,0,.27.6,3.61,3.61,0,0,0,1.37.49,9,9,0,0,1,1.51.43,2.16,2.16,0,0,1,.89.7,1.68,1.68,0,0,1,.28,1,1.82,1.82,0,0,1-.31,1,2.09,2.09,0,0,1-.9.75,3.11,3.11,0,0,1-1.32.27,4,4,0,0,1-1.56-.27,2.2,2.2,0,0,1-1-.81A2.34,2.34,0,0,1,41.21,70.46Z"/><path class="cls-8" d="M47.8,66.8v-1h.84v1Zm0,5.85V67.72h.84v4.93Z"/><path class="cls-8" d="M49.9,72.65V65.84h.84v6.81Z"/><path class="cls-8" d="M55.44,71.06l.87.11a2.13,2.13,0,0,1-.76,1.17,2.6,2.6,0,0,1-3.15-.24,2.64,2.64,0,0,1-.64-1.88,2.71,2.71,0,0,1,.65-1.93,2.19,2.19,0,0,1,1.67-.69,2.14,2.14,0,0,1,1.63.68,2.66,2.66,0,0,1,.63,1.89,2.2,2.2,0,0,1,0,.23h-3.7a1.91,1.91,0,0,0,.46,1.24,1.39,1.39,0,0,0,1,.43,1.3,1.3,0,0,0,.79-.24A1.61,1.61,0,0,0,55.44,71.06Zm-2.76-1.35h2.77a1.66,1.66,0,0,0-.32-.94,1.29,1.29,0,0,0-1-.48,1.31,1.31,0,0,0-1,.39A1.49,1.49,0,0,0,52.68,69.71Z"/><path class="cls-8" d="M57.37,72.65V67.72h.75v.7a1.78,1.78,0,0,1,1.58-.82,2.23,2.23,0,0,1,.83.16,1.31,1.31,0,0,1,.56.42,1.73,1.73,0,0,1,.26.62,4.91,4.91,0,0,1,0,.82v3h-.84v-3a2.43,2.43,0,0,0-.1-.77.84.84,0,0,0-.35-.4,1.13,1.13,0,0,0-.59-.15,1.34,1.34,0,0,0-.92.34A1.65,1.65,0,0,0,58.21,70v2.69Z"/><path class="cls-8" d="M65.93,70.84l.82.11a2.12,2.12,0,0,1-.69,1.33,2,2,0,0,1-1.37.48,2.14,2.14,0,0,1-1.64-.66,2.68,2.68,0,0,1-.62-1.9,3.4,3.4,0,0,1,.27-1.4,1.78,1.78,0,0,1,.81-.9,2.41,2.41,0,0,1,1.18-.3A2.06,2.06,0,0,1,66,68a1.81,1.81,0,0,1,.66,1.16l-.81.12a1.37,1.37,0,0,0-.42-.75,1.1,1.1,0,0,0-.71-.25,1.33,1.33,0,0,0-1,.45,2.89,2.89,0,0,0,0,2.88,1.24,1.24,0,0,0,1,.45,1.21,1.21,0,0,0,.83-.3A1.5,1.5,0,0,0,65.93,70.84Z"/><path class="cls-8" d="M70.87,71.06l.87.11A2.13,2.13,0,0,1,71,72.34a2.6,2.6,0,0,1-3.15-.24,2.6,2.6,0,0,1-.64-1.88,2.71,2.71,0,0,1,.65-1.93,2.17,2.17,0,0,1,1.67-.69,2.14,2.14,0,0,1,1.63.68,2.66,2.66,0,0,1,.63,1.89,2.2,2.2,0,0,1,0,.23h-3.7a1.91,1.91,0,0,0,.46,1.24,1.39,1.39,0,0,0,1,.43,1.3,1.3,0,0,0,.79-.24A1.61,1.61,0,0,0,70.87,71.06Zm-2.76-1.35h2.77a1.66,1.66,0,0,0-.32-.94,1.29,1.29,0,0,0-1-.48,1.35,1.35,0,0,0-1,.39A1.52,1.52,0,0,0,68.11,69.71Z"/></g></g></svg>